<svg width="165" height="56" viewBox="0 0 165 56" fill="none" xmlns="http://www.w3.org/2000/svg">
<g filter="url(#filter0_d_1_144)">
<path d="M26.0145 44.3278C23.6642 44.7113 21.3139 44.8646 18.8069 45.1714L11.286 23.5443V46.0917C8.93566 46.3218 6.82039 46.6285 4.54843 47.012V5.67517H10.8159L19.3553 29.1428V5.67517H26.0145V44.3278ZM39.0195 20.8601C41.6048 20.8601 45.522 20.7067 47.8723 20.7067V27.1489C44.9736 27.1489 41.5265 27.1489 39.0195 27.3022V36.8887C42.8583 36.6586 46.7755 36.3519 50.6926 36.1985V42.4105L32.4387 43.791V5.67517H50.6926V12.1173H39.0195C39.0195 12.194 39.0195 20.8601 39.0195 20.8601ZM75.1358 12.194H68.3199V41.8737C66.1263 41.8737 63.8543 41.8737 61.7391 41.9504V12.194H54.9232V5.67517H75.2141C75.1358 5.67517 75.1358 12.194 75.1358 12.194ZM85.8688 20.4H94.8783V26.8421H85.8688V41.4902H79.3663V5.67517H97.777V12.1173H85.8688C85.8688 12.194 85.8688 20.4 85.8688 20.4ZM108.51 35.815C112.27 35.8917 116.031 36.1985 119.713 36.3519V42.7173C113.837 42.3338 107.962 42.027 101.929 41.8737V5.67517H108.51V35.815ZM125.275 43.1774C127.391 43.3308 129.584 43.4075 131.778 43.6376V5.67517H125.275V43.1774ZM160.608 5.67517L152.226 25.3083L160.608 46.9353C158.101 46.6286 155.673 46.1684 153.166 45.7849L148.465 33.821L143.608 44.7879C141.258 44.4045 138.907 44.2511 136.557 43.9443L145.018 25.0782L137.34 5.67517H144.391L148.7 16.4887L153.322 5.67517H160.608Z" fill="#B4A6A2"/>
</g>
<defs>
<filter id="filter0_d_1_144" x="0" y="0" width="165" height="59" filterUnits="userSpaceOnUse" color-interpolation-filters="sRGB">
<feFlood flood-opacity="0" result="BackgroundImageFix"/>
<feColorMatrix in="SourceAlpha" type="matrix" values="0 0 0 0 0 0 0 0 0 0 0 0 0 0 0 0 0 0 127 0" result="hardAlpha"/>
<feOffset dy="4"/>
<feGaussianBlur stdDeviation="2"/>
<feComposite in2="hardAlpha" operator="out"/>
<feColorMatrix type="matrix" values="0 0 0 0 0 0 0 0 0 0 0 0 0 0 0 0 0 0 0.25 0"/>
<feBlend mode="normal" in2="BackgroundImageFix" result="effect1_dropShadow_1_144"/>
<feBlend mode="normal" in="SourceGraphic" in2="effect1_dropShadow_1_144" result="shape"/>
</filter>
</defs>
</svg>
