<svg width="140" height="140" viewBox="0 0 140 140" fill="none" xmlns="http://www.w3.org/2000/svg">
<rect width="140" height="140" rx="6" fill="#EEF2FF"/>
<path d="M70 51.6666V88.3333" stroke="#6366F1" stroke-width="2" stroke-linecap="round" stroke-linejoin="round"/>
<path d="M78.3333 58.3334H65.8333C64.2862 58.3334 62.8025 58.948 61.7085 60.0419C60.6146 61.1359 60 62.6196 60 64.1667C60 65.7138 60.6146 67.1975 61.7085 68.2915C62.8025 69.3855 64.2862 70 65.8333 70H74.1667C75.7138 70 77.1975 70.6146 78.2915 71.7086C79.3854 72.8025 80 74.2863 80 75.8334C80 77.3805 79.3854 78.8642 78.2915 79.9582C77.1975 81.0521 75.7138 81.6667 74.1667 81.6667H60" stroke="#6366F1" stroke-width="2" stroke-linecap="round" stroke-linejoin="round"/>
</svg>
